<svg width="32" height="32" fill="none" xmlns="http://www.w3.org/2000/svg"><path d="M25.1 8.85a1.95 1.95 0 1 1-3.9 0 1.95 1.95 0 0 1 3.9 0Z" fill="#CAAD76"/><path fill-rule="evenodd" clip-rule="evenodd" d="M16 22.5a6.5 6.5 0 1 0 0-13 6.5 6.5 0 0 0 0 13Zm0-2.6a3.9 3.9 0 1 0 0-7.8 3.9 3.9 0 0 0 0 7.8Z" fill="#CAAD76"/><path fill-rule="evenodd" clip-rule="evenodd" d="M3 15.48c0-4.368 0-6.553.85-8.221A7.8 7.8 0 0 1 7.26 3.85C8.927 3 11.112 3 15.48 3h1.04c4.368 0 6.553 0 8.221.85a7.8 7.8 0 0 1 3.409 3.41c.85 1.668.85 3.853.85 8.221v1.04c0 4.368 0 6.553-.85 8.221a7.8 7.8 0 0 1-3.409 3.409c-1.668.85-3.853.85-8.221.85h-1.04c-4.368 0-6.553 0-8.221-.85A7.8 7.8 0 0 1 3.85 24.74C3 23.073 3 20.888 3 16.52v-1.04ZM15.48 5.6h1.04c2.227 0 3.741.002 4.911.098 1.14.093 1.723.262 2.13.469a5.2 5.2 0 0 1 2.272 2.272c.207.407.376.99.47 2.13.095 1.17.097 2.684.097 4.911v1.04c0 2.227-.002 3.741-.098 4.911-.093 1.14-.262 1.723-.469 2.13a5.2 5.2 0 0 1-2.272 2.272c-.407.207-.99.376-2.13.47-1.17.095-2.684.097-4.911.097h-1.04c-2.227 0-3.741-.002-4.911-.098-1.14-.093-1.723-.262-2.13-.469a5.2 5.2 0 0 1-2.272-2.272c-.207-.407-.376-.99-.47-2.13-.095-1.17-.097-2.684-.097-4.911v-1.04c0-2.227.002-3.741.098-4.911.093-1.14.262-1.723.469-2.13a5.2 5.2 0 0 1 2.272-2.272c.407-.207.99-.376 2.13-.47 1.17-.095 2.684-.097 4.911-.097Z" fill="#CAAD76"/></svg>