<svg width="22" height="22" fill="none" xmlns="http://www.w3.org/2000/svg"><path d="M20.167 8.232V16.5a1.839 1.839 0 0 1-1.834 1.833H3.667A1.839 1.839 0 0 1 1.833 16.5v-11c0-1.008.825-1.833 1.834-1.833h9.258a5.012 5.012 0 0 0-.092.916c0 1.357.596 2.558 1.531 3.401L11 10.084 3.667 5.5v1.833L11 11.917l4.858-3.044a4.438 4.438 0 0 0 1.559.294 4.57 4.57 0 0 0 2.75-.935Zm-5.5-3.649a2.746 2.746 0 0 0 2.75 2.75 2.746 2.746 0 0 0 2.75-2.75 2.746 2.746 0 0 0-2.75-2.75 2.746 2.746 0 0 0-2.75 2.75Z" fill="#fff"/></svg>