<svg width="26" height="26" viewBox="0 0 26 26" fill="none" xmlns="http://www.w3.org/2000/svg">
<path d="M22.1 5.85C22.1 6.92696 21.227 7.8 20.15 7.8C19.073 7.8 18.2 6.92696 18.2 5.85C18.2 4.77304 19.073 3.9 20.15 3.9C21.227 3.9 22.1 4.77304 22.1 5.85Z" fill="#CAAD76"/>
<path fill-rule="evenodd" clip-rule="evenodd" d="M13 19.5C16.5898 19.5 19.5 16.5898 19.5 13C19.5 9.41015 16.5898 6.5 13 6.5C9.41015 6.5 6.5 9.41015 6.5 13C6.5 16.5898 9.41015 19.5 13 19.5ZM13 16.9C15.1539 16.9 16.9 15.1539 16.9 13C16.9 10.8461 15.1539 9.1 13 9.1C10.8461 9.1 9.1 10.8461 9.1 13C9.1 15.1539 10.8461 16.9 13 16.9Z" fill="#CAAD76"/>
<path fill-rule="evenodd" clip-rule="evenodd" d="M0 12.48C0 8.11159 0 5.92739 0.850149 4.25887C1.59796 2.79121 2.79121 1.59796 4.25887 0.850149C5.92739 0 8.11159 0 12.48 0H13.52C17.8884 0 20.0726 0 21.7411 0.850149C23.2088 1.59796 24.402 2.79121 25.1498 4.25887C26 5.92739 26 8.11159 26 12.48V13.52C26 17.8884 26 20.0726 25.1498 21.7411C24.402 23.2088 23.2088 24.402 21.7411 25.1498C20.0726 26 17.8884 26 13.52 26H12.48C8.11159 26 5.92739 26 4.25887 25.1498C2.79121 24.402 1.59796 23.2088 0.850149 21.7411C0 20.0726 0 17.8884 0 13.52V12.48ZM12.48 2.6H13.52C15.7471 2.6 17.2611 2.60202 18.4313 2.69763C19.5712 2.79077 20.1541 2.95957 20.5607 3.16677C21.5392 3.66531 22.3347 4.46081 22.8332 5.43925C23.0404 5.84589 23.2092 6.42882 23.3024 7.5687C23.398 8.73893 23.4 10.2529 23.4 12.48V13.52C23.4 15.7471 23.398 17.2611 23.3024 18.4313C23.2092 19.5712 23.0404 20.1541 22.8332 20.5607C22.3347 21.5392 21.5392 22.3347 20.5607 22.8332C20.1541 23.0404 19.5712 23.2092 18.4313 23.3024C17.2611 23.398 15.7471 23.4 13.52 23.4H12.48C10.2529 23.4 8.73893 23.398 7.5687 23.3024C6.42882 23.2092 5.84589 23.0404 5.43925 22.8332C4.46081 22.3347 3.66531 21.5392 3.16677 20.5607C2.95957 20.1541 2.79077 19.5712 2.69763 18.4313C2.60202 17.2611 2.6 15.7471 2.6 13.52V12.48C2.6 10.2529 2.60202 8.73893 2.69763 7.5687C2.79077 6.42882 2.95957 5.84589 3.16677 5.43925C3.66531 4.46081 4.46081 3.66531 5.43925 3.16677C5.84589 2.95957 6.42882 2.79077 7.5687 2.69763C8.73893 2.60202 10.2529 2.6 12.48 2.6Z" fill="#CAAD76"/>
</svg>
