<svg width="22" height="22" viewBox="0 0 22 22" fill="none" xmlns="http://www.w3.org/2000/svg">
<path d="M20.1666 8.23171V16.5C20.1666 17.5084 19.3416 18.3334 18.3333 18.3334H3.66665C2.65831 18.3334 1.83331 17.5084 1.83331 16.5V5.50004C1.83331 4.49171 2.65831 3.66671 3.66665 3.66671H12.925C12.87 3.96004 12.8333 4.27171 12.8333 4.58337C12.8333 5.94004 13.4291 7.14087 14.3641 7.98421L11 10.0834L3.66665 5.50004V7.33337L11 11.9167L15.8583 8.87337C16.3533 9.05671 16.8666 9.16671 17.4166 9.16671C18.4525 9.16671 19.3966 8.80921 20.1666 8.23171ZM14.6666 4.58337C14.6666 6.10504 15.895 7.33337 17.4166 7.33337C18.9383 7.33337 20.1666 6.10504 20.1666 4.58337C20.1666 3.06171 18.9383 1.83337 17.4166 1.83337C15.895 1.83337 14.6666 3.06171 14.6666 4.58337Z" fill="white"/>
</svg>
